<?xml version="1.0" standalone="no"?><!DOCTYPE svg PUBLIC "-//W3C//DTD SVG 1.1//EN" "http://www.w3.org/Graphics/SVG/1.1/DTD/svg11.dtd"><svg t="1658381437204" class="icon" viewBox="0 0 1024 1024" version="1.1" xmlns="http://www.w3.org/2000/svg" p-id="2797" width="64" height="64" xmlns:xlink="http://www.w3.org/1999/xlink"><defs><style type="text/css">@font-face { font-family: feedback-iconfont; src: url("//at.alicdn.com/t/font_1031158_u69w8yhxdu.woff2?t=1630033759944") format("woff2"), url("//at.alicdn.com/t/font_1031158_u69w8yhxdu.woff?t=1630033759944") format("woff"), url("//at.alicdn.com/t/font_1031158_u69w8yhxdu.ttf?t=1630033759944") format("truetype"); }
</style></defs><path d="M923.591111 181.475556a47.786667 47.786667 0 0 0-23.608889-37.546667A58.311111 58.311111 0 0 0 853.333333 134.542222a41.528889 41.528889 0 0 0-23.608889 46.933334c23.608889 0 37.546667 19.057778 42.382223 42.382222V227.555556H881.777778a41.244444 41.244444 0 0 0 42.382222-37.546667z m-597.333333 249.457777l-14.222222-14.222222-23.324445-23.324444L113.777778 219.306667 105.244444 227.555556a774.826667 774.826667 0 0 1-61.155555 61.155555l-14.222222 23.324445 23.608889 23.608888 18.773333 18.773334L113.777778 312.888889h4.551111l32.995555 32.995555c4.835556 4.835556 4.835556 4.835556 0 4.835556L119.182222 384l-5.404444 4.551111c-4.835556 0-4.835556 4.835556 0 4.835556L147.626667 426.666667h9.386666a256 256 0 0 0 37.546667-32.711111s4.551111-4.835556 4.551111 0l37.831111 37.546666c4.551111 4.551111 0 4.551111 0 4.551111L199.111111 473.315556c-4.551111 4.551111-4.551111 4.551111 0 4.551111l37.831111 37.831111h4.551111l4.835556-3.697778 9.671111-10.524444 13.937778-14.222223 9.671111-9.386666 46.933333-46.933334c-4.835556 4.551111 0 4.551111 0 0z m0 0" p-id="2798"></path><path d="M995.555556 576.568889v-173.795556a126.293333 126.293333 0 0 0-14.222223-56.888889 64.568889 64.568889 0 0 0-23.324444-37.546666 77.084444 77.084444 0 0 0-42.382222-14.222222h-38.968889a20.195556 20.195556 0 0 1-19.057778-18.773334v-9.102222c0-9.386667 4.835556-23.608889 4.835556-32.995556V227.555556a50.346667 50.346667 0 0 0-42.382223-37.546667h-4.551111a135.68 135.68 0 0 1-42.382222 4.551111c-9.386667 0-18.773333-4.551111-18.773333-14.222222V139.377778a56.888889 56.888889 0 0 0-32.995556-56.888889 190.008889 190.008889 0 0 0-70.542222-13.937778H457.955556a4.551111 4.551111 0 0 0-4.835556 4.551111 49.208889 49.208889 0 0 0 32.995556 28.444445 301.226667 301.226667 0 0 0 65.991111 0h51.484444c4.835556 0 4.835556 0 4.835556 4.835555s0 9.386667-4.835556 9.386667h-98.702222c-4.551111 0-4.551111 4.835556-4.551111 4.835555a4.551111 4.551111 0 0 0 4.551111 4.551112c4.835556 0 0 4.835556 4.835555 4.835555h4.551112a28.444444 28.444444 0 0 0 18.773333 4.551111h75.377778a4.835556 4.835556 0 0 0 4.835555 4.835556h18.773334a4.551111 4.551111 0 0 1 4.551111 4.551111H566.044444c-4.551111 0-13.937778-4.551111-18.773333 0v9.386667a42.951111 42.951111 0 0 0 32.995556 14.222222H654.222222a82.488889 82.488889 0 0 1 32.995556-9.386667c4.835556 4.551111 9.386667 4.551111 4.835555 9.386667h-85.333333c-4.835556 0-4.835556 0-4.835556 4.551111 4.835556 9.386667 14.222222 19.057778 23.608889 19.057778h85.333334c4.551111 0 9.386667 4.551111 4.551111 9.386666h-64.568889c-4.835556 0-4.835556 4.551111 0 4.551111 4.551111 9.386667 9.386667 14.222222 18.773333 9.386667h75.093334a4.835556 4.835556 0 0 1 4.835555 4.835556c0 4.551111-4.835556 4.551111-4.835555 4.551111H682.666667c-4.835556 0 0 4.835556 0 4.835555 4.551111 4.551111 9.386667 9.386667 13.937777 9.386667 18.773333 9.386667 18.773333 14.222222 18.773334 37.546667v4.835555a17.351111 17.351111 0 0 1-4.551111 13.937778l-85.333334 85.333333-7.68-9.955555a331.662222 331.662222 0 0 1-32.995555-56.888889 24.746667 24.746667 0 0 1 9.386666-32.711111 4.835556 4.835556 0 0 0 4.835556-4.835556c4.551111 0 9.386667-4.551111 14.222222-4.551111h9.386667l23.324444 9.386667c9.386667 4.551111 14.222222 0 14.222223-9.386667a72.248889 72.248889 0 0 0-32.995556-56.888889h-4.551111a59.448889 59.448889 0 0 0-61.155556 9.386667 79.075556 79.075556 0 0 0-32.995555 70.542222v4.835556a133.12 133.12 0 0 0 18.773333 61.155555 83.626667 83.626667 0 0 0-94.151111 61.155556l-98.702222-98.702222-65.706667-69.973334a10.24 10.24 0 0 0-9.386667-9.671111l-28.444444-28.444444-56.888889-56.888889-4.835555-4.835556-13.937778-9.386666a36.693333 36.693333 0 0 0-46.648889-3.697778 41.813333 41.813333 0 0 0-9.386667 51.768889c0 4.551111 4.835556 4.551111 4.835556 4.551111l244.622222 244.622222h4.551111l37.546667 37.546667c4.835556 0 0 4.835556 0 4.835555a71.964444 71.964444 0 0 0-37.546667 28.444445 81.635556 81.635556 0 0 0-13.937778 65.706666s4.551111 4.835556 0 4.835556h-14.222222a77.937778 77.937778 0 0 0-70.542222 42.382222A104.675556 104.675556 0 0 0 284.444444 722.488889a6.542222 6.542222 0 0 1 0 9.386667l-160.426666 159.857777c-9.386667 9.386667-9.386667 18.773333 0 32.995556h4.551111c4.835556 4.835556 9.386667 4.835556 19.057778 0L284.444444 793.031111l32.995556-32.995555c0-4.551111 4.551111-4.551111 9.386667 0a79.075556 79.075556 0 0 0 46.933333 14.222222h18.773333a72.248889 72.248889 0 0 0 70.542223-70.542222v-14.222223c0-4.551111 0-9.386667 4.835555-4.551111h4.551111a87.324444 87.324444 0 0 0 75.377778-23.608889l9.386667-9.386666c0-4.835556 4.835556-9.386667 4.835555-14.222223s4.551111-4.551111 4.551111 0l47.217778 47.217778 9.386667 4.551111c4.551111 4.835556 9.386667 4.835556 9.386666 9.386667l37.546667 37.831111a42.666667 42.666667 0 0 1 4.551111 46.933333 90.453333 90.453333 0 0 0-9.386666 32.995556v46.933333a99.84 99.84 0 0 0 4.835555 37.546667c4.551111 9.386667 4.551111 19.057778 14.222222 28.444444h4.551111A142.222222 142.222222 0 0 0 796.444444 981.048889a125.724444 125.724444 0 0 0 127.146667-75.093333l9.386667-14.222223a35.555556 35.555556 0 0 0 9.386666-18.773333v-4.551111a156.16 156.16 0 0 0 4.835556-103.537778 148.48 148.48 0 0 0-23.608889-46.933333 120.888889 120.888889 0 0 0-85.333333-32.995556H824.888889a129.991111 129.991111 0 0 0-61.155556 13.937778h-9.386666a53.76 53.76 0 0 1-37.831111-13.937778l4.835555-9.386666-4.835555-4.835556-9.386667-9.386667-18.773333-14.222222-14.222223-13.937778-42.097777-42.382222a98.133333 98.133333 0 0 0 46.933333-28.444444 93.297778 93.297778 0 0 0 9.386667-61.155556c0-4.835556 0-4.835556 4.835555-4.835555l13.937778 4.835555a95.288889 95.288889 0 0 0 94.151111-4.835555 4.551111 4.551111 0 0 0 4.551111-4.551112l14.222222-9.386666 4.835556-4.551111 4.551111-4.551111a79.928889 79.928889 0 0 0 4.835556-56.888889c0-4.551111-4.835556-4.551111-4.835556-9.386667a88.746667 88.746667 0 0 0-46.933333-23.324444H768s-4.551111 0 0 4.551111v4.835555a16.782222 16.782222 0 0 0 4.835556 13.937778 36.693333 36.693333 0 0 1 4.551111 23.608889c0 23.608889-18.773333 37.546667-37.546667 28.444444a269.084444 269.084444 0 0 1-61.155556-37.546666c-4.835556-4.835556 0-4.835556 0-4.835556 23.608889-23.324444 51.768889-51.768889 79.928889-75.093333a35.555556 35.555556 0 0 1 18.773334-9.386667c9.386667 0 18.773333-4.835556 28.444444 0a4.551111 4.551111 0 0 0 4.835556 4.551111c4.835556 9.386667 9.386667 14.222222 14.222222 23.608889 0 0 4.551111 4.551111 4.551111 0v-61.155555h4.835556c4.551111 0 4.551111 4.551111 4.551111 9.386666v75.377778c0 4.551111 4.835556 13.937778 9.386666 13.937778 4.835556 4.835556 9.386667 4.835556 9.386667-4.551111v-61.155556c0-4.835556 4.835556-4.835556 9.386667-4.835555v94.151111c0 4.551111 4.835556 9.386667 4.835555 13.937777a4.835556 4.835556 0 0 1 4.835556 4.835556H881.777778a9.102222 9.102222 0 0 0 9.386666-9.386667V355.555556a4.835556 4.835556 0 0 1 4.835556 4.835555v98.702222a26.168889 26.168889 0 0 0 14.222222 24.462223h4.835556v-95.004445c4.551111 0 4.551111 0 4.551111 4.835556v103.253333a34.133333 34.133333 0 0 0 14.222222 28.444444c4.551111 4.551111 4.551111 0 4.551111-4.835555v-4.551111A591.075556 591.075556 0 0 0 932.977778 426.666667v-4.551111c4.551111 0 4.551111 0 4.551111 4.551111v108.373333a56.888889 56.888889 0 0 0 4.835555 28.444444 37.831111 37.831111 0 0 0 18.773334 18.773334c4.835556 0 4.835556 4.835556 9.386666 0s23.608889 0 23.608889-4.835556zM575.431111 125.155556z m159.857778 686.648888a40.106667 40.106667 0 0 1 32.711111-18.773333c4.835556 0 4.835556 0 4.835556-4.551111a50.062222 50.062222 0 0 1 46.933333-42.382222 63.715556 63.715556 0 0 1 42.382222 0h4.551111a71.68 71.68 0 0 1 28.444445 103.253333A139.377778 139.377778 0 0 1 824.888889 915.342222a73.671111 73.671111 0 0 1-89.6-23.608889 68.835556 68.835556 0 0 1-9.386667-28.444444v-14.222222a91.022222 91.022222 0 0 1 9.386667-37.546667z m-409.031111-122.311111a85.333333 85.333333 0 0 1-9.386667-32.711111 26.168889 26.168889 0 0 1 28.444445-23.608889c9.386667 0 18.773333 4.551111 28.444444 4.551111 4.835556 0 4.835556 4.835556 0 4.835556l-42.382222 46.933333c0 4.835556-4.551111 4.835556-4.551111 0z m94.151111 32.995556a26.168889 26.168889 0 0 1-23.608889 14.222222 90.453333 90.453333 0 0 1-32.995556-9.386667c-4.551111 0-4.551111-4.835556 0-4.835555l9.386667-9.386667 37.546667-37.546666a56.888889 56.888889 0 0 1 9.671111 46.933333z m28.444444-150.471111l-23.608889 23.608889s-4.551111 4.551111-4.551111 0a49.777778 49.777778 0 0 1 0-51.768889 47.217778 47.217778 0 0 1 42.097778-9.386667 9.955556 9.955556 0 0 1 9.386667 9.386667v4.551111l-13.937778 18.773333c-4.835556 0-4.835556 4.835556-9.386667 4.835556z m75.093334 28.444444v14.222222a36.124444 36.124444 0 0 1-37.546667 32.711112c-9.386667 0-14.222222-4.551111-18.773333-4.551112s-4.835556-4.835556 0-9.386666l46.933333-46.933334h4.835556a20.195556 20.195556 0 0 1 4.551111 13.937778z m14.222222-122.311111l-9.386667 9.386667 4.551111 4.835555v-4.835555l4.835556 4.835555-4.835556 4.551111h-4.551111a56.888889 56.888889 0 0 1-18.773333-37.546666 52.906667 52.906667 0 0 1 13.937778-37.546667 35.555556 35.555556 0 0 1 18.773333-9.386667 92.728889 92.728889 0 0 1 51.768889 9.386667l-4.551111 4.551111-4.835556 4.835556z m65.706667 70.542222h-13.937778c-9.386667 0-18.773333-9.386667-23.608889-13.937777a9.102222 9.102222 0 0 1 0-14.222223l28.444444-23.608889 23.608889-23.324444v-4.835556h4.835556c0-4.551111 4.551111-4.551111 9.386666 0l4.551112-4.551111 4.835555 4.551111a66.275556 66.275556 0 0 1 9.386667 51.768889c-18.773333 18.773333-28.444444 28.444444-47.217778 28.444445z m235.235555-174.08zM984.746667 483.555556z m0 0" p-id="2799"></path></svg>