<?xml version="1.0" standalone="no"?><!DOCTYPE svg PUBLIC "-//W3C//DTD SVG 1.1//EN" "http://www.w3.org/Graphics/SVG/1.1/DTD/svg11.dtd"><svg t="1658829238443" class="icon" viewBox="0 0 1024 1024" version="1.1" xmlns="http://www.w3.org/2000/svg" p-id="2273" data-spm-anchor-id="a313x.7781069.0.i2" xmlns:xlink="http://www.w3.org/1999/xlink" width="64" height="64"><defs><style type="text/css">@font-face { font-family: feedback-iconfont; src: url("//at.alicdn.com/t/font_1031158_u69w8yhxdu.woff2?t=1630033759944") format("woff2"), url("//at.alicdn.com/t/font_1031158_u69w8yhxdu.woff?t=1630033759944") format("woff"), url("//at.alicdn.com/t/font_1031158_u69w8yhxdu.ttf?t=1630033759944") format("truetype"); }
</style></defs><path d="M925.789091 425.658182a150.341818 150.341818 0 0 1-52.596364 113.570909 10.007273 10.007273 0 0 1 0 2.56v276.945454a75.403636 75.403636 0 0 1-75.403636 75.403637h-553.890909a75.636364 75.636364 0 0 1-75.636364-75.403637v-276.945454-2.56A150.109091 150.109091 0 0 1 116.363636 425.658182C116.363636 418.909091 116.363636 418.909091 206.429091 179.432727A64.698182 64.698182 0 0 1 264.378182 139.636364h513.396363a64.698182 64.698182 0 0 1 57.949091 40.029091C925.789091 418.909091 925.789091 418.909091 925.789091 425.658182z m-656.989091-186.181818a25.134545 25.134545 0 0 0 0 50.269091h504.32a25.134545 25.134545 0 0 0 0-50.269091z m554.589091 579.258181V568.32a148.712727 148.712727 0 0 1-50.967273 9.309091 186.181818 186.181818 0 0 1-128.698182-55.621818 164.538182 164.538182 0 0 1-121.949091 55.621818A188.509091 188.509091 0 0 1 395.636364 522.24a165.701818 165.701818 0 0 1-125.207273 55.389091 150.109091 150.109091 0 0 1-51.2-9.309091v250.414545a25.134545 25.134545 0 0 0 25.367273 25.134546H798.254545a25.134545 25.134545 0 0 0 25.134546-25.134546z" p-id="2274" data-spm-anchor-id="a313x.7781069.0.i0" class="" fill="#2c2c2c"></path></svg>